<svg xmlns="http://www.w3.org/2000/svg" viewBox="0 0 240 240" role="img" aria-labelledby="title desc">
  <title id="title">Downtown Clawson Brand Mark</title>
  <desc id="desc">Blue C shape with a heart in the center.</desc>
  <defs>
    <linearGradient id="cgrad" x1="0" y1="0" x2="1" y2="1">
      <stop offset="0%" stop-color="#0a1789" />
      <stop offset="100%" stop-color="#091372" />
    </linearGradient>
    <linearGradient id="heartGrad" x1="0" y1="0" x2="0" y2="1">
      <stop offset="0%" stop-color="#1f8ed8" />
      <stop offset="100%" stop-color="#0f6fba" />
    </linearGradient>
  </defs>

  <path
    d="M217 50.5A109 109 0 1 0 217 189.5L187.8 160.3A68 68 0 1 1 187.8 79.7Z"
    fill="url(#cgrad)"
  />

  <path
    d="M120 153c-2.7 0-5.4-.8-7.6-2.5-12.7-9.5-23.3-18.8-31.6-27.6-7.8-8.3-11.9-16.2-11.9-23.2 0-14.2 11.6-25.8 25.8-25.8 9 0 17.3 4.7 22.2 12.2 4.8-7.5 13.1-12.2 22.2-12.2 14.2 0 25.8 11.6 25.8 25.8 0 7-4.1 14.9-11.9 23.2-8.3 8.8-18.9 18.1-31.6 27.6-2.2 1.7-4.9 2.5-7.5 2.5Z"
    fill="url(#heartGrad)"
  />
</svg>
