<svg xmlns="http://www.w3.org/2000/svg" viewBox="0 0 24 24" aria-hidden="true" role="img">
  <path fill="currentColor" d="M7.75 2h8.5A5.75 5.75 0 0 1 22 7.75v8.5A5.75 5.75 0 0 1 16.25 22h-8.5A5.75 5.75 0 0 1 2 16.25v-8.5A5.75 5.75 0 0 1 7.75 2Zm-.12 1.9A3.73 3.73 0 0 0 3.9 7.63v8.74a3.73 3.73 0 0 0 3.73 3.73h8.74a3.73 3.73 0 0 0 3.73-3.73V7.63a3.73 3.73 0 0 0-3.73-3.73H7.63Zm8.99 1.42a1.2 1.2 0 1 1 0 2.4 1.2 1.2 0 0 1 0-2.4ZM12 7a5 5 0 1 1 0 10 5 5 0 0 1 0-10Zm0 1.9A3.1 3.1 0 1 0 12 15.1 3.1 3.1 0 0 0 12 8.9Z"/>
</svg>
